<svg width="131" height="28" viewBox="0 0 500 115" fill="none" xmlns="http://www.w3.org/2000/svg"><path d="m168 25 17.875-.25 5.578-.11c18.29-.212 18.29-.212 25.172 5.773 4.548 5.041 5.666 9.89 5.688 16.525l.05 3.59c-.577 5.522-2.639 9.347-6.925 12.847l-1.817 1.523C212 66 212 66 210 66l1.574 3.148L223 92c-3.066.217-6.117.375-9.187.5l-2.62.203c-2.606.08-4.685.024-7.193-.703-2.384-2.334-3.626-4.989-5-8a361 361 0 0 0-2.062-3.809 292 292 0 0 1-2.899-5.517c-1.06-2.037-1.06-2.037-3.039-4.674l-5-1v23h-18zm18 14v16l5.688.188 3.199.105c3.525-.332 5.31-1.167 8.113-3.293 1.659-2.809 1.659-2.809 2-6-1.237-3.2-2.178-4.588-5.258-6.133-3.013-.953-5.403-1.068-8.554-.992z" fill="#F9F8FC"/><path d="M14 25h18l1 24 22 1V25h18v67H55V65l-22 1-1 26H14z" fill="#FDFCFE"/><path d="M298.313 31.125c7.515 7.105 10.563 17.067 11 27.188-.312 10.51-3.46 20.16-11.2 27.468C290.658 91.757 282.548 94.216 273 94c-10.735-1.624-18.208-5.064-25.2-13.398-6.178-8.926-6.761-19.05-5.8-29.602 1.835-10.018 6.774-17.108 14.938-23.187 12.957-7.67 29.7-5.958 41.375 3.312M262.688 45c-3.774 6.709-3.698 15.005-2.192 22.453 1.723 5.1 4.638 9.114 9.504 11.547 4.896.537 8.868.524 13.375-1.562 5.688-5.282 7.559-11.079 7.875-18.688-.083-6.22-1.788-11.46-5.125-16.687-3.54-3.436-6.178-3.973-11.062-4.438-5.743.173-8.94 2.917-12.375 7.375" fill="#F9F8FC"/><path d="M329 25h19l1 22c1.06-1.42 2.12-2.841 3.21-4.305l4.165-5.57 2.117-2.84 2.031-2.715 1.873-2.507C364 27 364 27 366 25c2.155-.227 2.155-.227 4.79-.195l2.85.02 2.985.05 3.008.027q3.683.036 7.367.098c-3.327 4.532-6.685 8.923-10.5 13.063-.76.841-1.519 1.683-2.3 2.55a148 148 0 0 1-4.18 4.367c-1.931 1.915-1.931 1.915-4.02 5.02 1.037 4.68 3.286 8.441 5.773 12.5l1.107 1.814c1.16 1.9 2.327 3.792 3.495 5.686q1.166 1.905 2.328 3.813c4.157 6.81 4.157 6.81 8.55 13.468C389 90 389 90 389 92c-6.92 1.545-14.285 2.78-21 0-6.537-6.412-10.69-15.55-14-24v-2c-2.68 1.25-2.68 1.25-5 4-.79 3.736-.79 7.44-.812 11.25l-.077 3.125A547 547 0 0 0 348 92h-19z" fill="#F6F3FA"/><path d="M407 25h18l.044 4.036c.058 4.954.136 9.907.218 14.86q.051 3.213.084 6.425c.034 3.084.086 6.166.142 9.25l.02 2.888c.115 5.249.562 9 3.492 13.541 2.02 1.72 3.3 2.003 5.93 1.992 3.14-.264 5.41-.523 8.007-2.367 1.965-3.005 2.201-5.703 2.268-9.188l.06-2.79.051-3.002.063-3.082q.097-4.875.183-9.75l.131-6.608q.16-8.103.307-16.205h18q.149 9.738.22 19.476.03 3.308.082 6.614c.049 3.185.071 6.37.089 9.555l.062 2.943c.003 8.225-1.615 15.92-6.89 22.412-9.323 7.276-19.113 8.13-30.563 7-7.048-1.614-12.046-4.63-16.148-10.7-3.08-5.032-3.981-9.37-3.966-15.182v-2.85l.016-3.038.005-3.14c.005-3.3.018-6.601.03-9.903q.009-3.362.014-6.724.017-8.232.049-16.463" fill="#FAF8FC"/><path d="M97 25h49v14c-1 1-1 1-3.776 1.114l-3.665-.016-3.955-.01-4.167-.026-4.177-.013Q121.13 40.03 116 40v11h21v14h-21v13h31v14H97z" fill="#F6F2FA"/></svg>